<svg width="806" height="599" viewBox="0 0 806 599" fill="none" xmlns="http://www.w3.org/2000/svg">
<g clip-path="url(#clip0_2_2)">
<path d="M801.3 418.6C798.4 403.1 783.6 316.1 769.3 274C759.9 246.3 756.2 221 752.3 209.1C740.3 173.4 719.3 143.4 719.3 143.4C719.3 143.4 709.8 130.3 709.2 127.1C708.6 123.8 704.5 118.5 704.5 118.5C704.5 118.5 687.1 112.8 642.2 112.8C597.3 112.8 588.5 117.8 588.5 117.8C588.5 117.8 586.1 120.7 582.6 122.6C579.1 124.4 570.9 124.3 570.9 124.3H537.5C537.5 124.3 536.9 124.2 536.6 124.6C536.2 125 536 126.6 536 126.6H403H269.9C269.9 126.6 269.6 124.9 269.3 124.6C268.9 124.2 268.4 124.3 268.4 124.3H235C235 124.3 226.8 124.5 223.3 122.6C219.8 120.8 217.4 117.8 217.4 117.8C217.4 117.8 208.6 112.8 163.7 112.8C118.9 112.8 101.4 118.5 101.4 118.5C101.4 118.5 97.3 123.8 96.7 127.1C96.1 130.4 86.6 143.4 86.6 143.4C86.6 143.4 65.6 173.4 53.6 209.1C49.6 221 45.9 246.3 36.6 274C22.3 316.1 7.5 403.1 4.6 418.6C0.299998 441.8 0 508.8 0 508.8C0 508.8 4.5 562.2 36.2 583.7C67.9 605.2 92.9 597.7 92.9 597.7C92.9 597.7 126 589.5 150.7 555.8C175.4 522.1 207.3 426.6 207.3 426.6C207.3 426.6 209.5 423.6 213 421.3C216.5 419 219.3 418.7 219.3 418.7L403 418.8L586.7 418.7C586.7 418.7 589.5 419 593 421.3C596.5 423.6 598.7 426.6 598.7 426.6C598.7 426.6 630.6 522 655.3 555.8C680 589.6 713.1 597.7 713.1 597.7C713.1 597.7 738.1 605.2 769.8 583.7C801.5 562.2 806 508.8 806 508.8C806 508.8 805.7 441.8 801.3 418.6Z" fill="#0D0E13"/>
<mask id="mask0_2_2" style="mask-type:alpha" maskUnits="userSpaceOnUse" x="0" y="112" width="806" height="487">
<path d="M801.3 418.6C798.4 403.1 783.6 316.1 769.3 274C759.9 246.3 756.2 221 752.3 209.1C740.3 173.4 719.3 143.4 719.3 143.4C719.3 143.4 709.8 130.3 709.2 127.1C708.6 123.8 704.5 118.5 704.5 118.5C704.5 118.5 687.1 112.8 642.2 112.8C597.3 112.8 588.5 117.8 588.5 117.8C588.5 117.8 586.1 120.7 582.6 122.6C579.1 124.4 570.9 124.3 570.9 124.3H537.5C537.5 124.3 536.9 124.2 536.6 124.6C536.2 125 536 126.6 536 126.6H403H269.9C269.9 126.6 269.6 124.9 269.3 124.6C268.9 124.2 268.4 124.3 268.4 124.3H235C235 124.3 226.8 124.5 223.3 122.6C219.8 120.8 217.4 117.8 217.4 117.8C217.4 117.8 208.6 112.8 163.7 112.8C118.9 112.8 101.4 118.5 101.4 118.5C101.4 118.5 97.3 123.8 96.7 127.1C96.1 130.4 86.6 143.4 86.6 143.4C86.6 143.4 65.6 173.4 53.6 209.1C49.6 221 45.9 246.3 36.6 274C22.3 316.1 7.5 403.1 4.6 418.6C0.299998 441.8 0 508.8 0 508.8C0 508.8 4.5 562.2 36.2 583.7C67.9 605.2 92.9 597.7 92.9 597.7C92.9 597.7 126 589.5 150.7 555.8C175.4 522.1 207.3 426.6 207.3 426.6C207.3 426.6 209.5 423.6 213 421.3C216.5 419 219.3 418.7 219.3 418.7L403 418.8L586.7 418.7C586.7 418.7 589.5 419 593 421.3C596.5 423.6 598.7 426.6 598.7 426.6C598.7 426.6 630.6 522 655.3 555.8C680 589.6 713.1 597.7 713.1 597.7C713.1 597.7 738.1 605.2 769.8 583.7C801.5 562.2 806 508.8 806 508.8C806 508.8 805.7 441.8 801.3 418.6Z" fill="#0D0E13"/>
</mask>
<g mask="url(#mask0_2_2)">
<g opacity="0.8">
<rect x="44.5574" y="163" width="871" height="5.84445" transform="rotate(19 44.5574 163)" fill="#DDA820"/>
<rect x="44.5574" y="178" width="460.471" height="5.84445" transform="rotate(19 44.5574 178)" fill="#DDA820"/>
<rect x="44.5574" y="191" width="442.615" height="5.84445" transform="rotate(19 44.5574 191)" fill="#DDA820"/>
<rect x="44.5574" y="203" width="843.349" height="5.84445" transform="rotate(19 44.5574 203)" fill="#DDA820"/>
<rect x="-7.09723" y="362" width="871" height="5.84445" transform="rotate(19 -7.09723 362)" fill="#DDA820"/>
<rect x="-7.09723" y="377" width="460.471" height="5.84445" transform="rotate(19 -7.09723 377)" fill="#DDA820"/>
<rect x="-7.09723" y="390" width="442.615" height="5.84445" transform="rotate(19 -7.09723 390)" fill="#DDA820"/>
<rect x="-7.09723" y="402" width="843.349" height="5.84445" transform="rotate(19 -7.09723 402)" fill="#DDA820"/>
<rect x="-7.09723" y="285" width="871" height="5.84445" transform="rotate(19 -7.09723 285)" fill="#DDA820"/>
<rect x="-7.09723" y="300" width="460.471" height="5.84445" transform="rotate(19 -7.09723 300)" fill="#DDA820"/>
<rect x="-7.09723" y="313" width="442.615" height="5.84445" transform="rotate(19 -7.09723 313)" fill="#DDA820"/>
<rect x="-7.09723" y="325" width="843.349" height="5.84445" transform="rotate(19 -7.09723 325)" fill="#DDA820"/>
<rect width="871" height="5.84445" transform="matrix(-0.948324 -0.317305 -0.317305 0.948324 862.224 498.343)" fill="#DDA820"/>
<rect width="460.471" height="5.84445" transform="matrix(-0.948324 -0.317305 -0.317305 0.948324 853.093 510.244)" fill="#DDA820"/>
<rect width="442.615" height="5.84445" transform="matrix(-0.948324 -0.317305 -0.317305 0.948324 845.179 520.557)" fill="#DDA820"/>
<rect width="843.349" height="5.84445" transform="matrix(-0.948324 -0.317305 -0.317305 0.948324 837.874 530.077)" fill="#DDA820"/>
</g>
</g>
<g opacity="0.06">
<path opacity="0.06" d="M36.6 276C46 248.3 49.7 223 53.6 211.1C65.6 175.4 86.6 145.4 86.6 145.4C86.6 145.4 96.1 132.3 96.7 129.1C97.3 125.8 101.4 120.5 101.4 120.5C101.4 120.5 118.8 114.8 163.7 114.8C208.5 114.8 217.4 119.8 217.4 119.8C217.4 119.8 219.8 122.7 223.3 124.6C226.8 126.4 235 126.3 235 126.3H268.4C268.4 126.3 269 126.2 269.3 126.6C269.7 127 269.9 128.6 269.9 128.6H403H536.1C536.1 128.6 536.4 126.9 536.7 126.6C537.1 126.2 537.6 126.3 537.6 126.3H571C571 126.3 579.2 126.5 582.7 124.6C586.2 122.8 588.6 119.8 588.6 119.8C588.6 119.8 597.4 114.8 642.3 114.8C687.2 114.8 704.6 120.5 704.6 120.5C704.6 120.5 708.7 125.8 709.3 129.1C709.9 132.4 719.4 145.4 719.4 145.4C719.4 145.4 740.4 175.4 752.4 211.1C756.4 223 760.1 248.3 769.4 276C783.7 318.1 798.5 405.1 801.4 420.6C805.3 441.5 806 497.9 806.1 508.9C806.1 508.8 806.1 508.8 806.1 508.8C806.1 508.8 805.8 441.9 801.4 418.7C798.5 403.2 783.7 316.2 769.4 274.1C760 246.4 756.3 221.1 752.4 209.2C740.4 173.5 719.4 143.5 719.4 143.5C719.4 143.5 709.9 130.4 709.3 127.2C708.7 123.9 704.6 118.6 704.6 118.6C704.6 118.6 687.2 112.9 642.3 112.9C597.4 112.9 588.6 117.9 588.6 117.9C588.6 117.9 586.2 120.8 582.7 122.7C579.2 124.5 571 124.4 571 124.4H537.6C537.6 124.4 537 124.3 536.7 124.7C536.3 125.1 536.1 126.7 536.1 126.7H403H269.9C269.9 126.7 269.6 125 269.3 124.7C268.9 124.3 268.4 124.4 268.4 124.4H235C235 124.4 226.8 124.6 223.3 122.7C219.8 120.9 217.4 117.9 217.4 117.9C217.4 117.9 208.6 112.9 163.7 112.9C118.9 112.9 101.4 118.6 101.4 118.6C101.4 118.6 97.3 123.9 96.7 127.2C96.1 130.5 86.6 143.5 86.6 143.5C86.6 143.5 65.6 173.5 53.6 209.2C49.6 221.1 45.9 246.4 36.6 274.1C22.3 316.2 7.5 403.2 4.6 418.7C0.299998 441.8 0 508.8 0 508.8V508.9C0.1 498 0.699997 441.5 4.7 420.6C7.6 405.2 22.3 318.1 36.6 276Z" fill="white"/>
</g>
<path d="M351.2 360C351.2 317.8 316.9 283.5 274.7 283.5C232.5 283.5 198.2 317.8 198.2 360C198.2 360.7 198.2 361.3 198.3 362C198.3 362.7 198.2 363.3 198.2 364C198.2 406.2 232.5 440.5 274.7 440.5C316.9 440.5 351.2 406.2 351.2 364C351.2 363.3 351.2 362.7 351.1 362C351.1 361.3 351.2 360.6 351.2 360Z" fill="#13161F"/>
<path d="M274.7 429C315.017 429 347.7 396.317 347.7 356C347.7 315.683 315.017 283 274.7 283C234.383 283 201.7 315.683 201.7 356C201.7 396.317 234.383 429 274.7 429Z" fill="#0F1015"/>
<path d="M274.7 407.5C303.143 407.5 326.2 384.443 326.2 356C326.2 327.557 303.143 304.5 274.7 304.5C246.257 304.5 223.2 327.557 223.2 356C223.2 384.443 246.257 407.5 274.7 407.5Z" fill="black"/>
<path d="M607.8 360C607.8 317.8 573.5 283.5 531.3 283.5C489.1 283.5 454.8 317.8 454.8 360C454.8 360.7 454.8 361.3 454.9 362C454.9 362.7 454.8 363.3 454.8 364C454.8 406.2 489.1 440.5 531.3 440.5C573.5 440.5 607.8 406.2 607.8 364C607.8 363.3 607.8 362.7 607.7 362C607.8 361.3 607.8 360.6 607.8 360Z" fill="#13161F"/>
<path d="M531.3 429C571.617 429 604.3 396.317 604.3 356C604.3 315.683 571.617 283 531.3 283C490.983 283 458.3 315.683 458.3 356C458.3 396.317 490.983 429 531.3 429Z" fill="#0F1015"/>
<path d="M531.3 407.5C559.743 407.5 582.8 384.443 582.8 356C582.8 327.557 559.743 304.5 531.3 304.5C502.857 304.5 479.8 327.557 479.8 356C479.8 384.443 502.857 407.5 531.3 407.5Z" fill="black"/>
<path d="M534.8 128C534.4 124.8 531.5 122.4 528.3 122.4H403H277.7C274.5 122.4 271.6 124.7 271.2 128C271.1 128.7 271.1 129.4 271.1 130.1V257.5C271.1 266.4 278.3 273.6 287.2 273.6H403H518.8C527.7 273.6 534.9 266.4 534.9 257.5V130.1C535 129.4 534.9 128.7 534.8 128Z" fill="#121212"/>
<path d="M745.6 244.8C745.6 296.328 703.828 338.1 652.3 338.1C600.772 338.1 559 296.328 559 244.8C559 193.272 600.772 151.5 652.3 151.5C703.828 151.5 745.6 193.272 745.6 244.8Z" fill="black" stroke="#DDA820" stroke-width="2"/>
<path d="M247 244.8C247 296.328 205.228 338.1 153.7 338.1C102.172 338.1 60.4 296.328 60.4 244.8C60.4 193.272 102.172 151.5 153.7 151.5C205.228 151.5 247 193.272 247 244.8Z" fill="black" stroke="#DDA820" stroke-width="2"/>
<path d="M229.693 235.307L229.704 235.319L229.716 235.33L239.201 244.216C239.274 244.291 239.275 244.34 239.275 244.35C239.275 244.36 239.274 244.409 239.201 244.484L229.77 253.32C229.684 253.37 229.589 253.368 229.524 253.339C229.508 253.331 229.499 253.325 229.494 253.321C229.494 253.316 229.494 253.309 229.495 253.299L229.5 253.25V253.2V244.3V235.4C229.5 235.357 229.511 235.338 229.518 235.328C229.528 235.313 229.547 235.296 229.574 235.285C229.602 235.273 229.625 235.272 229.64 235.275C229.649 235.276 229.666 235.28 229.693 235.307ZM229.495 253.327C229.495 253.327 229.495 253.327 229.495 253.326L229.495 253.327Z" fill="#DDA820" stroke="#DDA820" stroke-width="2"/>
<path d="M162.87 168.584L162.881 168.596L162.893 168.607C162.92 168.634 162.924 168.651 162.925 168.66C162.928 168.675 162.927 168.698 162.915 168.726C162.904 168.753 162.887 168.772 162.872 168.782C162.862 168.789 162.843 168.8 162.8 168.8H153.9H145C144.958 168.8 144.937 168.789 144.923 168.78C144.904 168.766 144.879 168.741 144.861 168.701C144.843 168.66 144.839 168.622 144.842 168.595C144.843 168.578 144.847 168.568 144.853 168.558L153.716 159.099C153.791 159.026 153.84 159.025 153.85 159.025C153.86 159.025 153.909 159.026 153.984 159.099L162.87 168.584Z" fill="#DDA820" stroke="#DDA820" stroke-width="2"/>
<path d="M78.1837 235.33L78.1956 235.319L78.2071 235.307C78.2335 235.281 78.2487 235.278 78.2527 235.278L78.253 235.278C78.2615 235.276 78.2785 235.276 78.3009 235.286C78.3227 235.296 78.3448 235.314 78.3622 235.34C78.3775 235.364 78.4 235.412 78.4 235.5V244.4V253.3C78.4 253.343 78.3891 253.362 78.382 253.372C78.3717 253.387 78.3531 253.404 78.3258 253.415C78.2984 253.427 78.2748 253.428 78.2601 253.425C78.251 253.424 78.2339 253.42 78.2071 253.393L78.1956 253.381L78.1837 253.37L68.6987 244.484C68.6264 244.409 68.625 244.36 68.625 244.35C68.625 244.34 68.6264 244.291 68.6987 244.216L78.1837 235.33Z" fill="#DDA820" stroke="#DDA820" stroke-width="2"/>
<path d="M144.93 320.016L144.919 320.004L144.907 319.993C144.88 319.966 144.876 319.949 144.875 319.94C144.872 319.925 144.873 319.902 144.885 319.874C144.896 319.847 144.913 319.828 144.928 319.818C144.938 319.811 144.957 319.8 145 319.8H153.9H162.8C162.842 319.8 162.863 319.81 162.877 319.82C162.896 319.834 162.921 319.859 162.939 319.899C162.957 319.94 162.961 319.978 162.958 320.005C162.957 320.022 162.953 320.032 162.947 320.041L154.084 329.501C154.009 329.574 153.96 329.575 153.95 329.575C153.94 329.575 153.891 329.574 153.816 329.501L144.93 320.016Z" fill="#DDA820" stroke="#DDA820" stroke-width="2"/>
<path d="M105.2 544.5C64.7 541.7 29.4 524.2 17.9 514C6.4 503.7 0.400002 482.4 0.400002 482.4C1.51992e-06 497.4 0 508.7 0 508.7C0 508.7 4.5 562.1 36.2 583.6C67.9 605.1 92.9 597.6 92.9 597.6C92.9 597.6 126 589.4 150.7 555.7C155.2 549.5 160 541.2 164.8 531.9C164.7 531.9 145.6 547.2 105.2 544.5Z" fill="#CC9507"/>
<path d="M90 592.5C77.5 594.3 58.7 590.5 44.9 584.8C31.3 579.1 20.9 568.4 20.9 568.4C25.1 574.2 30.2 579.5 36.2 583.6C67.9 605.1 92.9 597.6 92.9 597.6C92.9 597.6 104.6 594.7 119.2 585.3C119.2 585.3 104.6 590.5 90 592.5Z" fill="white"/>
<path d="M700.8 544.5C741.3 541.7 776.6 524.2 788.1 514C799.6 503.8 805.6 482.5 805.6 482.5C806 497.5 806 508.8 806 508.8C806 508.8 801.5 562.2 769.8 583.7C738.1 605.2 713.1 597.7 713.1 597.7C713.1 597.7 680 589.5 655.3 555.8C650.8 549.6 646 541.3 641.2 532C641.3 531.9 660.4 547.2 700.8 544.5Z" fill="#CC9507"/>
<path d="M716 592.5C728.5 594.3 747.3 590.5 761.1 584.8C774.7 579.1 785.1 568.4 785.1 568.4C780.9 574.2 775.8 579.5 769.8 583.6C738.1 605.1 713.1 597.6 713.1 597.6C713.1 597.6 701.4 594.7 686.8 585.3C686.8 585.3 701.4 590.5 716 592.5Z" fill="white"/>
<path d="M240.5 143.5C247.4 143.5 253 149.1 253 156V174.3C253 181.2 247.4 186.8 240.5 186.8C233.6 186.8 228 181.2 228 174.3V156C228 149.1 233.6 143.5 240.5 143.5ZM240.5 141.8C232.7 141.8 226.3 148.2 226.3 156V174.3C226.3 182.1 232.7 188.5 240.5 188.5C248.3 188.5 254.7 182.1 254.7 174.3V156C254.7 148.1 248.3 141.8 240.5 141.8Z" fill="#DDA820"/>
<path d="M240.5 143.5C233.6 143.5 228 149.1 228 156V174.3C228 181.2 233.6 186.8 240.5 186.8C247.4 186.8 253 181.2 253 174.3V156C253 149.1 247.4 143.5 240.5 143.5Z" fill="#0D0E13"/>
<path d="M565.5 143.5C572.4 143.5 578 149.1 578 156V174.3C578 181.2 572.4 186.8 565.5 186.8C558.6 186.8 553 181.2 553 174.3V156C553 149.1 558.6 143.5 565.5 143.5ZM565.5 141.8C557.7 141.8 551.3 148.2 551.3 156V174.3C551.3 182.1 557.7 188.5 565.5 188.5C573.3 188.5 579.7 182.1 579.7 174.3V156C579.7 148.1 573.3 141.8 565.5 141.8Z" fill="#DDA820"/>
<path d="M565.5 143.5C558.6 143.5 553 149.1 553 156V174.3C553 181.2 558.6 186.8 565.5 186.8C572.4 186.8 578 181.2 578 174.3V156C578 149.1 572.4 143.5 565.5 143.5Z" fill="#0D0E13"/>
<path d="M141.2 247.2C142.6 245.2 142.4 244.3 142.4 244.3C142.4 244.3 142.6 243.4 141.2 241.4C139.8 239.4 126.2 227.8 125.5 227.4C124.8 227 97 225.2 94.1 228.7C91.2 232.2 91.5 244.3 91.5 244.3C91.5 244.3 91.2 256.4 94.1 259.9C97 263.4 124.8 261.6 125.5 261.2C126.2 260.8 139.8 249.2 141.2 247.2Z" fill="#DDA820"/>
<path opacity="0.25" d="M141.2 247.2C142.6 245.2 142.4 244.3 142.4 244.3C142.4 244.3 142.6 243.4 141.2 241.4C140.3 240.1 134.3 234.8 130 231.1C127.9 235 126.6 239.5 126.6 244.3C126.6 249.1 127.8 253.6 130 257.5C134.3 253.8 140.3 248.5 141.2 247.2Z" fill="black"/>
<path d="M151 231.6C153 233 153.9 232.8 153.9 232.8C153.9 232.8 154.8 233 156.8 231.6C158.8 230.2 170.4 216.6 170.8 215.9C171.2 215.2 173 187.4 169.5 184.5C166 181.6 153.9 181.9 153.9 181.9C153.9 181.9 141.8 181.6 138.3 184.5C134.8 187.4 136.6 215.2 137 215.9C137.5 216.6 149 230.2 151 231.6Z" fill="#DDA820"/>
<path opacity="0.25" d="M151 231.6C153 233 153.9 232.8 153.9 232.8C153.9 232.8 154.8 233 156.8 231.6C158.1 230.7 163.4 224.7 167.1 220.4C163.2 218.3 158.7 217 153.9 217C149.1 217 144.6 218.2 140.7 220.4C144.5 224.7 149.7 230.7 151 231.6Z" fill="black"/>
<path d="M213.7 228.8C210.8 225.3 183 227.1 182.3 227.5C181.6 227.9 168 239.5 166.6 241.5C165.2 243.5 165.4 244.4 165.4 244.4C165.4 244.4 165.2 245.3 166.6 247.3C168 249.3 181.6 260.9 182.3 261.3C183 261.7 210.8 263.5 213.7 260C216.6 256.5 216.3 244.4 216.3 244.4C216.3 244.4 216.6 232.3 213.7 228.8Z" fill="#DDA820"/>
<path opacity="0.25" d="M177.9 231.2C173.6 234.9 167.6 240.2 166.7 241.5C165.3 243.5 165.5 244.4 165.5 244.4C165.5 244.4 165.3 245.3 166.7 247.3C167.6 248.6 173.6 253.9 177.9 257.6C180 253.7 181.3 249.2 181.3 244.4C181.3 239.6 180 235.1 177.9 231.2Z" fill="black"/>
<path d="M156.8 257.1C154.8 255.7 153.9 255.9 153.9 255.9C153.9 255.9 153 255.7 151 257.1C149 258.5 137.4 272.1 137 272.8C136.6 273.5 134.8 301.3 138.3 304.2C141.8 307.1 153.9 306.8 153.9 306.8C153.9 306.8 166 307.1 169.5 304.2C173 301.3 171.2 273.5 170.8 272.8C170.4 272 158.8 258.5 156.8 257.1Z" fill="#DDA820"/>
<path opacity="0.25" d="M156.8 257.1C154.8 255.7 153.9 255.9 153.9 255.9C153.9 255.9 153 255.7 151 257.1C149.7 258 144.4 264 140.7 268.3C144.6 270.4 149.1 271.7 153.9 271.7C158.7 271.7 163.2 270.5 167.1 268.3C163.4 264 158.1 258 156.8 257.1Z" fill="black"/>
<path d="M403 320.5C405.264 320.5 407.1 318.664 407.1 316.4C407.1 314.136 405.264 312.3 403 312.3C400.736 312.3 398.9 314.136 398.9 316.4C398.9 318.664 400.736 320.5 403 320.5Z" fill="black"/>
<path d="M403 299.6C405.264 299.6 407.1 297.764 407.1 295.5C407.1 293.236 405.264 291.4 403 291.4C400.736 291.4 398.9 293.236 398.9 295.5C398.9 297.764 400.736 299.6 403 299.6Z" fill="black"/>
<path d="M396.1 309.8C398.364 309.8 400.2 307.964 400.2 305.7C400.2 303.436 398.364 301.6 396.1 301.6C393.836 301.6 392 303.436 392 305.7C392 307.964 393.836 309.8 396.1 309.8Z" fill="black"/>
<path d="M381.4 309.8C383.664 309.8 385.5 307.964 385.5 305.7C385.5 303.436 383.664 301.6 381.4 301.6C379.136 301.6 377.3 303.436 377.3 305.7C377.3 307.964 379.136 309.8 381.4 309.8Z" fill="black"/>
<path d="M388.7 320.5C390.964 320.5 392.8 318.664 392.8 316.4C392.8 314.136 390.964 312.3 388.7 312.3C386.436 312.3 384.6 314.136 384.6 316.4C384.6 318.664 386.436 320.5 388.7 320.5Z" fill="black"/>
<path d="M388.7 299.6C390.964 299.6 392.8 297.764 392.8 295.5C392.8 293.236 390.964 291.4 388.7 291.4C386.436 291.4 384.6 293.236 384.6 295.5C384.6 297.764 386.436 299.6 388.7 299.6Z" fill="black"/>
<path d="M374.4 299.6C376.664 299.6 378.5 297.764 378.5 295.5C378.5 293.236 376.664 291.4 374.4 291.4C372.136 291.4 370.3 293.236 370.3 295.5C370.3 297.764 372.136 299.6 374.4 299.6Z" fill="black"/>
<path d="M409.9 309.8C412.164 309.8 414 307.964 414 305.7C414 303.436 412.164 301.6 409.9 301.6C407.636 301.6 405.8 303.436 405.8 305.7C405.8 307.964 407.636 309.8 409.9 309.8Z" fill="black"/>
<path d="M424.6 309.8C426.864 309.8 428.7 307.964 428.7 305.7C428.7 303.436 426.864 301.6 424.6 301.6C422.336 301.6 420.5 303.436 420.5 305.7C420.5 307.964 422.336 309.8 424.6 309.8Z" fill="black"/>
<path d="M417.2 320.5C419.464 320.5 421.3 318.664 421.3 316.4C421.3 314.136 419.464 312.3 417.2 312.3C414.936 312.3 413.1 314.136 413.1 316.4C413.1 318.664 414.936 320.5 417.2 320.5Z" fill="black"/>
<path d="M417.2 299.6C419.464 299.6 421.3 297.764 421.3 295.5C421.3 293.236 419.464 291.4 417.2 291.4C414.936 291.4 413.1 293.236 413.1 295.5C413.1 297.764 414.936 299.6 417.2 299.6Z" fill="black"/>
<path d="M431.6 299.6C433.864 299.6 435.7 297.764 435.7 295.5C435.7 293.236 433.864 291.4 431.6 291.4C429.336 291.4 427.5 293.236 427.5 295.5C427.5 297.764 429.336 299.6 431.6 299.6Z" fill="black"/>
<g opacity="0.12">
<path opacity="0.12" d="M403 319.5C400.9 319.5 399.2 317.9 398.9 315.9C398.9 316.1 398.8 316.2 398.8 316.4C398.8 318.7 400.6 320.5 402.9 320.5C405.2 320.5 407 318.7 407 316.4C407 316.2 407 316.1 406.9 315.9C406.8 317.9 405.1 319.5 403 319.5Z" fill="white"/>
<path opacity="0.12" d="M403 299.6C405.3 299.6 407.1 297.8 407.1 295.5C407.1 295.3 407.1 295.2 407 295C406.8 297 405 298.6 402.9 298.6C400.8 298.6 399.1 297 398.8 295C398.8 295.2 398.7 295.3 398.7 295.5C398.9 297.7 400.7 299.6 403 299.6Z" fill="white"/>
<path opacity="0.12" d="M400.2 305.7C400.2 305.5 400.2 305.4 400.1 305.2C399.9 307.2 398.1 308.8 396 308.8C393.9 308.8 392.2 307.2 391.9 305.2C391.9 305.4 391.8 305.5 391.8 305.7C391.8 308 393.6 309.8 395.9 309.8C398.3 309.8 400.2 308 400.2 305.7Z" fill="white"/>
<path opacity="0.12" d="M385.4 305.2C385.2 307.2 383.4 308.8 381.3 308.8C379.2 308.8 377.5 307.2 377.2 305.2C377.2 305.4 377.1 305.5 377.1 305.7C377.1 308 378.9 309.8 381.2 309.8C383.5 309.8 385.3 308 385.3 305.7C385.5 305.5 385.5 305.4 385.4 305.2Z" fill="white"/>
<path opacity="0.12" d="M388.8 319.5C386.7 319.5 385 317.9 384.7 315.9C384.7 316.1 384.6 316.2 384.6 316.4C384.6 318.7 386.4 320.5 388.7 320.5C391 320.5 392.8 318.7 392.8 316.4C392.8 316.2 392.8 316.1 392.7 315.9C392.6 317.9 390.9 319.5 388.8 319.5Z" fill="white"/>
<path opacity="0.12" d="M388.8 299.6C391.1 299.6 392.9 297.8 392.9 295.5C392.9 295.3 392.9 295.2 392.8 295C392.6 297 390.8 298.6 388.7 298.6C386.6 298.6 384.9 297 384.6 295C384.6 295.2 384.5 295.3 384.5 295.5C384.6 297.7 386.5 299.6 388.8 299.6Z" fill="white"/>
<path opacity="0.12" d="M378.6 295.5C378.6 295.3 378.6 295.2 378.5 295C378.3 297 376.5 298.6 374.4 298.6C372.3 298.6 370.6 297 370.3 295C370.3 295.2 370.2 295.3 370.2 295.5C370.2 297.8 372 299.6 374.3 299.6C376.7 299.6 378.6 297.7 378.6 295.5Z" fill="white"/>
<path opacity="0.12" d="M414 305.2C413.8 307.2 412 308.8 409.9 308.8C407.8 308.8 406.1 307.2 405.8 305.2C405.8 305.4 405.7 305.5 405.7 305.7C405.7 308 407.5 309.8 409.8 309.8C412.1 309.8 413.9 308 413.9 305.7C414.1 305.5 414 305.4 414 305.2Z" fill="white"/>
<path opacity="0.12" d="M424.6 308.8C422.5 308.8 420.8 307.2 420.5 305.2C420.5 305.4 420.4 305.5 420.4 305.7C420.4 308 422.2 309.8 424.5 309.8C426.8 309.8 428.6 308 428.6 305.7C428.6 305.5 428.6 305.4 428.5 305.2C428.5 307.3 426.7 308.8 424.6 308.8Z" fill="white"/>
<path opacity="0.12" d="M417.3 319.5C415.2 319.5 413.5 317.9 413.2 315.9C413.2 316.1 413.1 316.2 413.1 316.4C413.1 318.7 414.9 320.5 417.2 320.5C419.5 320.5 421.3 318.7 421.3 316.4C421.3 316.2 421.3 316.1 421.2 315.9C421.1 317.9 419.4 319.5 417.3 319.5Z" fill="white"/>
<path opacity="0.12" d="M417.3 299.6C419.6 299.6 421.4 297.8 421.4 295.5C421.4 295.3 421.4 295.2 421.3 295C421.1 297 419.3 298.6 417.2 298.6C415.1 298.6 413.4 297 413.1 295C413.1 295.2 413 295.3 413 295.5C413.1 297.7 415 299.6 417.3 299.6Z" fill="white"/>
<path opacity="0.12" d="M431.6 298.6C429.5 298.6 427.8 297 427.5 295C427.5 295.2 427.4 295.3 427.4 295.5C427.4 297.8 429.2 299.6 431.5 299.6C433.8 299.6 435.6 297.8 435.6 295.5C435.6 295.3 435.6 295.2 435.5 295C435.4 297 433.7 298.6 431.6 298.6Z" fill="white"/>
</g>
<path d="M436.6 421H368.7C365.9 421 364.1 421.6 364.1 418.8C364.1 416 366.4 413.8 369.1 413.8H437C439.8 413.8 442 416.1 442 418.8C442.1 421.5 439.4 421 436.6 421Z" fill="#0B0B0F"/>
<path d="M408.3 418.8H371.8C371.3 418.8 370.9 418.4 370.9 417.9C370.9 416.8 371.8 415.9 372.9 415.9H407.1C408.2 415.9 409.1 416.8 409.1 417.9C409.2 418.4 408.8 418.8 408.3 418.8Z" fill="black"/>
<path d="M430.5 419.6H426.3C425.4 419.6 424.6 418.8 424.6 417.9C424.6 416.3 425.9 415.1 427.4 415.1H429.3C430.9 415.1 432.1 416.4 432.1 417.9C432.2 418.9 431.5 419.6 430.5 419.6Z" fill="black"/>
<path d="M529.4 124.3V124.308L529.4 124.316L529.5 130.4V130.408V253.5C529.5 261.548 522.948 268.1 514.9 268.1H403H291.1C283.052 268.1 276.5 261.548 276.5 253.5V130.3V124.3C276.5 123.786 276.918 123.4 277.4 123.4H403H528.5C529.014 123.4 529.4 123.818 529.4 124.3Z" fill="#080808" stroke="#DDA820" stroke-width="2"/>
<g opacity="0.12">
<path opacity="0.12" d="M291.1 268.1C283.052 268.1 276.5 261.548 276.5 253.5V148H529.5V253.5C529.5 261.548 522.948 268.1 514.9 268.1H403H291.1Z" stroke="#DDA820" stroke-width="2"/>
</g>
<path d="M367.124 147L354 160.124L389.947 196.071L354 232.019L367.124 245.142L416.195 196.071L367.124 147Z" fill="white"/>
<path d="M441.304 181.946C448.153 188.794 452 198.082 452 207.768C452 217.453 448.153 226.741 441.304 233.59C434.456 240.438 425.167 244.286 415.482 244.286C405.797 244.286 396.508 240.438 389.66 233.59L402.737 220.513C406.117 223.893 410.702 225.792 415.482 225.792C420.262 225.792 424.847 223.893 428.227 220.513C431.607 217.133 433.506 212.548 433.506 207.768C433.506 202.987 431.607 198.403 428.227 195.022L441.304 181.946Z" fill="white"/>
<path d="M446.009 165.83V147H379.249L398.079 165.83H419.476L408.778 176.528L422.044 189.795L446.009 165.83Z" fill="white"/>
<path d="M709.9 271C695.4 271 683.6 259.2 683.6 244.7C683.6 230.2 695.4 218.4 709.9 218.4C724.4 218.4 736.2 230.2 736.2 244.7C736.2 259.2 724.4 271 709.9 271Z" fill="#1A1A1A"/>
<path d="M709.9 219.5C723.8 219.5 735.2 230.8 735.2 244.8C735.2 258.8 723.9 270 709.9 270C695.9 270 684.6 258.7 684.6 244.7C684.6 230.7 696 219.5 709.9 219.5ZM709.9 217.5C694.9 217.5 682.6 229.7 682.6 244.8C682.6 259.9 694.8 272.1 709.9 272.1C725 272.1 737.2 259.9 737.2 244.8C737.2 229.7 724.9 217.5 709.9 217.5Z" fill="#DDA820"/>
<path d="M709.9 225.9C699.5 225.9 691 234.4 691 244.8C691 255.2 699.5 263.7 709.9 263.7C720.3 263.7 728.8 255.2 728.8 244.8C728.8 234.4 720.4 225.9 709.9 225.9ZM709.9 260.8C701 260.8 693.9 253.6 693.9 244.8C693.9 235.9 701.1 228.8 709.9 228.8C718.7 228.8 725.9 236 725.9 244.8C726 253.7 718.8 260.8 709.9 260.8Z" fill="#DDA820"/>
<path d="M652.3 328.6C637.8 328.6 626 316.8 626 302.3C626 287.8 637.8 276 652.3 276C666.8 276 678.6 287.8 678.6 302.3C678.6 316.8 666.8 328.6 652.3 328.6Z" fill="#1A1A1A"/>
<path d="M652.3 277.1C666.2 277.1 677.6 288.4 677.6 302.4C677.6 316.4 666.3 327.7 652.3 327.7C638.3 327.7 627 316.4 627 302.4C627 288.4 638.4 277.1 652.3 277.1ZM652.3 275.1C637.3 275.1 625 287.3 625 302.4C625 317.4 637.2 329.7 652.3 329.7C667.4 329.7 679.6 317.5 679.6 302.4C679.6 287.4 667.4 275.1 652.3 275.1Z" fill="#DDA820"/>
<path d="M666.7 290L664.7 288L652.3 300.4L640 288L638 290L650.3 302.4L638 314.7L640 316.7L652.3 304.4L664.7 316.7L666.7 314.7L654.3 302.4L666.7 290Z" fill="#DDA820"/>
<path d="M594.8 271C580.3 271 568.5 259.2 568.5 244.7C568.5 230.2 580.3 218.4 594.8 218.4C609.3 218.4 621.1 230.2 621.1 244.7C621.1 259.2 609.2 271 594.8 271Z" fill="#1A1A1A"/>
<path d="M594.7 219.5C608.6 219.5 620 230.8 620 244.8C620 258.8 608.7 270 594.7 270C580.7 270 569.4 258.7 569.4 244.7C569.4 230.7 580.8 219.5 594.7 219.5ZM594.7 217.5C579.7 217.5 567.4 229.7 567.4 244.8C567.4 259.9 579.6 272.1 594.7 272.1C609.8 272.1 622 259.9 622 244.8C622 229.7 609.8 217.5 594.7 217.5Z" fill="#DDA820"/>
<path d="M606.3 230.4H583.3H580.5V233.2V256.2V259H583.3H606.3H609.1V256.2V233.2V230.4H606.3ZM606.3 256.3H583.3V233.3H606.3V256.3Z" fill="#DDA820"/>
<path d="M652.3 213.5C637.8 213.5 626 201.7 626 187.2C626 172.7 637.8 160.9 652.3 160.9C666.8 160.9 678.6 172.7 678.6 187.2C678.6 201.7 666.8 213.5 652.3 213.5Z" fill="#1A1A1A"/>
<path d="M652.3 162C666.2 162 677.6 173.3 677.6 187.3C677.6 201.3 666.3 212.6 652.3 212.6C638.3 212.6 627 201.3 627 187.3C627 173.3 638.4 162 652.3 162ZM652.3 160C637.3 160 625 172.2 625 187.3C625 202.4 637.2 214.6 652.3 214.6C667.4 214.6 679.6 202.4 679.6 187.3C679.6 172.2 667.4 160 652.3 160Z" fill="#DDA820"/>
<path d="M668.3 195.2L652.3 167.6L636.3 195.2L634.7 198H638H652.3H666.6H669.9L668.3 195.2ZM652.3 195.2H639.6L652.3 173.3L665 195.2H652.3Z" fill="#DDA820"/>
<path d="M403 382.2C414.156 382.2 423.2 373.156 423.2 362C423.2 350.844 414.156 341.8 403 341.8C391.844 341.8 382.8 350.844 382.8 362C382.8 373.156 391.844 382.2 403 382.2Z" fill="#050505" stroke="black" stroke-width="2" stroke-miterlimit="10"/>
<path d="M404.1 368.6V365.8V362.3V355.8C404.1 355.3 404.2 355 404.4 354.8C404.5 354.6 404.8 354.5 405.1 354.6C405.7 354.8 406 355.3 406 356.3V363.2C406.8 363.6 407.5 363.7 408.1 363.7C408.7 363.7 409.3 363.5 409.7 363.2C410.7 362.5 411.2 361.3 411.2 359.5C411.2 357.6 410.8 356.1 410 355.2C409.2 354.2 407.9 353.3 405.9 352.6C404.6 352.2 403.4 351.8 402.3 351.5C401.2 351.2 400.3 351 399.4 350.8V363V365.7V367.4V369.9V371.4L404.1 372.9V369.3V368.6Z" fill="#F2F2F2"/>
<path d="M399 367.6L397.3 368.2L396.4 368.6L394.8 368.9L393.3 368.7C393 368.5 392.9 368.3 393.1 368.1C393.2 368 393.3 368 393.4 367.9C393.5 367.8 393.7 367.8 393.8 367.7L394.9 367.3L399 365.8V363.1L397.3 363.6L391.8 365.6L390.8 366C389.3 366.6 388.6 367.2 388.6 367.8C388.7 368.6 389.6 369.3 391.3 369.7C392 369.9 392.7 370 393.4 370.1C394.1 370.2 394.8 370.2 395.6 370.2C396.6 370.2 397.7 370.1 398.9 369.9V367.6H399Z" fill="#F2F2F2"/>
<path d="M414.8 365.3C413.9 365 413.1 364.8 412.3 364.7C411.5 364.6 410.6 364.5 409.8 364.6C408.9 364.6 407.9 364.8 407 364.9C406.2 365.1 405.3 365.3 404.4 365.7V368.5L408.3 367.1L409.9 366.6L411 366.3H412.4C412.7 366.4 413 366.5 413.1 366.7C413.1 366.9 412.9 367.1 412.3 367.3L410.9 367.8L404.4 370.2V372.9L407.9 371.6L414.3 369.3L415 368.9C416.5 368.4 417.2 367.7 417.2 367C417.2 366.4 416.4 365.8 414.8 365.3Z" fill="#F2F2F2"/>
<path d="M697.2 109.9C697.2 109.1 696.8 108.4 696.1 108C691.6 105.1 672.7 94.4 644.6 94.4C617.7 94.4 603.5 100.3 599.5 102.4C598.7 102.8 598.3 103.6 598.3 104.4C598.3 104.4 608.1 101.5 645.8 101.5C683.5 101.5 697.2 109.9 697.2 109.9Z" fill="#BC8F1B"/>
<path d="M697.1 116.8V109.9C697.1 109.9 683.4 101.5 645.7 101.5C607.9 101.5 598.2 104.4 598.2 104.4V115.4C605.9 114.1 619.4 112.8 642.3 112.8C670.8 112.9 688.2 115.2 697.1 116.8Z" fill="#DDA820"/>
<path d="M108.8 109.9C108.8 109.1 109.2 108.4 109.9 108C114.4 105.1 133.3 94.4 161.4 94.4C188.3 94.4 202.5 100.3 206.5 102.4C207.3 102.8 207.7 103.6 207.7 104.4C207.7 104.4 197.9 101.5 160.2 101.5C122.5 101.5 108.8 109.9 108.8 109.9Z" fill="#BC8F1B"/>
<path d="M108.9 116.8V109.9C108.9 109.9 122.6 101.5 160.3 101.5C198.1 101.5 207.8 104.4 207.8 104.4V115.4C200.1 114.1 186.6 112.8 163.7 112.8C135.2 112.9 117.8 115.2 108.9 116.8Z" fill="#DDA820"/>
<path d="M697.2 90.8C697.2 90.8 664.5 87.6 646.6 87.6C628.7 87.6 598.2 90 598.2 90C598.2 90 601.3 45.3 603 38C604.6 30.7 610.7 16.7 619.9 10.1C629.1 3.5 631.8 0 642.6 0C653.4 0 668 6.4 677.2 21.4C686.5 36.4 697.2 90.8 697.2 90.8Z" fill="#0D0E13"/>
<path d="M598.7 83.2C598.7 83.2 624.8 78.8 647.7 78.8C670.5 78.8 695.6 83.2 695.6 83.2C696.6 87.9 697.2 90.8 697.2 90.8C697.2 90.8 664.5 87.6 646.6 87.6C628.7 87.6 598.2 90 598.2 90C598.2 90 598.4 87.3 598.7 83.2Z" fill="#DDA820"/>
<g opacity="0.8">
<g opacity="0.08">
<path opacity="0.08" d="M655.6 65.3C653.5 67 652.4 67.9 652.4 67.9C651.2 69.1 650.5 70.6 650.4 72.4H660.2V69.8H653.9C654.2 69.3 654.9 68.6 656 67.9C657.4 67 658.3 66.3 658.7 65.8C659.6 64.8 660 63.7 660 62.5C660 61.1 659.5 60 658.6 59.2C657.7 58.4 656.5 58 655.1 58C652 58 650.4 59.7 650.4 63H653.1C653.1 61.2 653.8 60.3 655.2 60.3C656.5 60.3 657.2 61 657.2 62.4C657.4 63.5 656.8 64.4 655.6 65.3Z" fill="white"/>
</g>
<path opacity="0.8" d="M638 66.8H641C642.5 66.8 643.3 67.4 643.4 68.7C643.5 69.9 643.6 71.2 643.7 72.5H647V72.1C646.5 71.9 646.3 71.4 646.3 70.6C646.3 70.4 646.3 70.2 646.4 69.8V69.1C646.4 67.4 645.8 66.2 644.6 65.6C646 65.1 646.8 64 646.8 62.2C646.8 60.9 646.4 59.9 645.5 59.2C644.7 58.5 643.6 58.2 642.3 58.2H635V72.5H638V66.8ZM638 60.6H641.7C643.1 60.6 643.8 61.2 643.8 62.5C643.8 63.8 643 64.4 641.5 64.4H638V60.6Z" fill="white"/>
</g>
<path d="M108.8 90.8C108.8 90.8 141.5 87.6 159.4 87.6C177.3 87.6 207.7 90 207.7 90C207.7 90 204.6 45.3 202.9 38C201.3 30.7 195.2 16.7 186 10.1C176.9 3.4 174.2 0 163.4 0C152.6 0 138 6.4 128.8 21.4C119.6 36.4 108.8 90.8 108.8 90.8Z" fill="#0D0E13"/>
<path d="M207.3 83.2C207.3 83.2 181.2 78.8 158.3 78.8C135.5 78.8 110.4 83.2 110.4 83.2C109.4 87.9 108.8 90.8 108.8 90.8C108.8 90.8 141.5 87.6 159.4 87.6C177.3 87.6 207.7 90 207.7 90C207.7 90 207.6 87.3 207.3 83.2Z" fill="#DDA820"/>
<g opacity="0.8">
<g opacity="0.08">
<path opacity="0.08" d="M173.3 65.7C171.2 67.4 170.1 68.3 170.1 68.3C168.9 69.5 168.2 71 168.1 72.8H177.9V70.2H171.7C172 69.7 172.7 69 173.8 68.3C175.2 67.4 176.1 66.7 176.5 66.2C177.4 65.2 177.8 64.1 177.8 62.9C177.8 61.5 177.3 60.4 176.4 59.6C175.5 58.8 174.3 58.4 172.9 58.4C169.8 58.4 168.2 60.1 168.2 63.4H170.9C170.9 61.6 171.6 60.7 173 60.7C174.3 60.7 175 61.4 175 62.8C175.1 63.9 174.5 64.8 173.3 65.7Z" fill="white"/>
</g>
<path opacity="0.8" d="M164.8 70.2H157.8V58.5H154.7V72.8H164.8V70.2Z" fill="white"/>
</g>
<path d="M547.6 134.6C547.6 136.7 546.1 138.4 543.5 138.4C540.9 138.4 539.4 136.7 539.4 134.6C539.4 132.6 540.9 130.8 543.5 130.8C546.1 130.8 547.6 132.5 547.6 134.6ZM540.9 134.6C540.9 136 541.7 137.3 543.5 137.3C545.3 137.3 546.1 135.9 546.1 134.6C546.1 133.2 545.3 131.9 543.5 131.9C541.7 131.9 540.9 133.2 540.9 134.6Z" fill="#DDA820"/>
<path d="M548.9 131H552.7C555.1 131 555.6 132.3 555.6 133.2C555.6 134.1 555.1 135.4 552.7 135.4H550.4V138.2H548.9V131ZM550.4 134.4H552.6C553.3 134.4 554.1 134.1 554.1 133.2C554.1 132.3 553.4 132 552.6 132H550.4V134.4Z" fill="#DDA820"/>
<path d="M556.1 131H563V132.1H560.3V138.2H558.8V132H556.1V131Z" fill="#DDA820"/>
<path d="M564.1 131H565.6V138.2H564.1V131Z" fill="#DDA820"/>
<path d="M575.1 134.6C575.1 136.7 573.6 138.4 571 138.4C568.4 138.4 566.9 136.7 566.9 134.6C566.9 132.6 568.4 130.8 571 130.8C573.6 130.8 575.1 132.5 575.1 134.6ZM568.4 134.6C568.4 136 569.2 137.3 571 137.3C572.8 137.3 573.6 135.9 573.6 134.6C573.6 133.2 572.8 131.9 571 131.9C569.2 131.9 568.4 133.2 568.4 134.6Z" fill="#DDA820"/>
<path d="M576.5 131H578.1L582 136.3V131H583.4V138.2H581.8L577.9 132.9V138.2H576.5V131Z" fill="#DDA820"/>
<path d="M586.2 135.8C586.2 136.9 587.2 137.3 588.4 137.3C589.7 137.3 590.2 136.7 590.2 136.2C590.2 135.6 589.8 135.4 589.5 135.3C588.9 135.1 588.1 135 586.9 134.7C585.4 134.4 585 133.6 585 132.9C585 131.4 586.6 130.8 588.1 130.8C589.9 130.8 591.4 131.6 591.4 133.1H589.9C589.8 132.2 589.1 131.8 588.1 131.8C587.4 131.8 586.5 132 586.5 132.7C586.5 133.2 586.9 133.5 587.5 133.6C587.6 133.6 589.5 134 590 134.2C591.1 134.5 591.7 135.3 591.7 136C591.7 137.6 590 138.3 588.3 138.3C586.3 138.3 584.8 137.5 584.7 135.7H586.2V135.8Z" fill="#DDA820"/>
<path d="M222.2 135.8C222.2 136.9 223.2 137.3 224.4 137.3C225.7 137.3 226.2 136.7 226.2 136.2C226.2 135.6 225.8 135.4 225.5 135.3C224.9 135.1 224.1 135 222.9 134.7C221.4 134.4 221 133.6 221 132.9C221 131.4 222.6 130.8 224.1 130.8C225.9 130.8 227.4 131.6 227.4 133.1H225.9C225.8 132.2 225.1 131.8 224.1 131.8C223.4 131.8 222.5 132 222.5 132.7C222.5 133.2 222.9 133.5 223.5 133.6C223.6 133.6 225.5 134 226 134.2C227.1 134.5 227.7 135.3 227.7 136C227.7 137.6 226 138.3 224.3 138.3C222.3 138.3 220.8 137.5 220.7 135.7H222.2V135.8Z" fill="#DDA820"/>
<path d="M228.9 131H230.4V133.9H234.3V131H235.8V138.2H234.3V135H230.4V138.2H228.9V131Z" fill="#DDA820"/>
<path d="M239.9 131H241.5L244.8 138.2H243.2L242.4 136.3H239L238.2 138.2H236.7L239.9 131ZM239.4 135.3H242L240.7 132.2L239.4 135.3Z" fill="#DDA820"/>
<path d="M245.6 131H249.7C251.6 131 252.5 131.7 252.5 132.9C252.5 134.3 251.4 134.6 251.1 134.7C251.6 134.8 252.4 135.1 252.4 136.2C252.4 137 252.5 137.8 252.9 138.1H251.3C251.1 137.8 251.1 137.4 251.1 137C251.1 135.7 250.8 135.1 249.4 135.1H247.2V138.1H245.7V131H245.6ZM247.1 134.2H249.6C250.6 134.2 251.1 133.8 251.1 133.1C251.1 132.2 250.4 132 249.6 132H247.2V134.2H247.1Z" fill="#DDA820"/>
<path d="M254.1 131H260.3V132.1H255.6V134H259.9V135H255.6V137.1H260.3V138.2H254.1V131Z" fill="#DDA820"/>
</g>
<defs>
<clipPath id="clip0_2_2">
<rect width="806" height="598.9" fill="white"/>
</clipPath>
</defs>
</svg>
