<svg width="179" height="104" viewBox="0 0 179 104" fill="none" xmlns="http://www.w3.org/2000/svg">
<g clip-path="url(#clip0_4_34)">
<path d="M124.5 20.6C125.9 18.6 125.7 17.7 125.7 17.7C125.7 17.7 125.9 16.8 124.5 14.8C123.1 12.8 109.5 1.19997 108.8 0.799968C108.1 0.399968 80.3 -1.39998 77.4 2.10002C74.5 5.60002 74.8 17.7 74.8 17.7C74.8 17.7 74.5 29.8 77.4 33.3C80.3 36.8 108.1 35 108.8 34.6C109.5 34.2 123.1 22.6 124.5 20.6Z" fill="#DDA820"/>
<path opacity="0.25" d="M124.5 20.6C125.9 18.6 125.7 17.7 125.7 17.7C125.7 17.7 125.9 16.8 124.5 14.8C123.6 13.5 117.6 8.2 113.3 4.5C111.2 8.4 109.9 12.9 109.9 17.7C109.9 22.5 111.1 27 113.3 30.9C117.6 27.2 123.6 21.9 124.5 20.6Z" fill="black"/>
<path d="M52.2 49.7C54.2 51.1 55.1 50.9 55.1 50.9C55.1 50.9 56 51.1 58 49.7C60 48.3 71.6 34.7 72 34C72.4 33.3 74.2 5.50006 70.7 2.60006C67.2 -0.299939 55.1 2.44118e-05 55.1 2.44118e-05C55.1 2.44118e-05 43 -0.199939 39.5 2.60006C36 5.40006 37.8 33.3 38.2 34C38.6 34.7 50.2 48.3 52.2 49.7Z" fill="#DDA820"/>
<path opacity="0.25" d="M52.2 49.7C54.2 51.1 55.1 50.9 55.1 50.9C55.1 50.9 56 51.1 58 49.7C59.3 48.8 64.6 42.8 68.3 38.5C64.4 36.4 59.9 35.1 55.1 35.1C50.3 35.1 45.8 36.3 41.9 38.5C45.6 42.8 50.9 48.8 52.2 49.7Z" fill="black"/>
<path d="M175.9 2.20003C173 -1.29997 145.2 0.500038 144.5 0.900038C143.8 1.30004 130.2 12.9 128.8 14.9C127.4 16.9 127.6 17.8 127.6 17.8C127.6 17.8 127.4 18.7 128.8 20.7C130.2 22.7 143.8 34.3 144.5 34.7C145.2 35.1 173 36.9 175.9 33.4C178.8 29.9 178.5 17.8 178.5 17.8C178.5 17.8 178.8 5.70003 175.9 2.20003Z" fill="#DDA820"/>
<path opacity="0.25" d="M140.1 4.60004C135.8 8.30004 129.8 13.6 128.9 14.9C127.5 16.9 127.7 17.8 127.7 17.8C127.7 17.8 127.5 18.7 128.9 20.7C129.8 22 135.8 27.3 140.1 31C142.2 27.1 143.5 22.6 143.5 17.8C143.5 13 142.2 8.50004 140.1 4.60004Z" fill="black"/>
<path d="M20.6 1.2C18.6 -0.2 17.7 -1.26949e-05 17.7 -1.26949e-05C17.7 -1.26949e-05 16.8 -0.2 14.8 1.2C12.8 2.6 1.19998 16.2 0.799985 16.9C0.399985 17.6 -1.4 45.4 2.1 48.3C5.6 51.2 17.7 50.9 17.7 50.9C17.7 50.9 29.8 51.2 33.3 48.3C36.8 45.4 35 17.6 34.6 16.9C34.2 16.2 22.6 2.6 20.6 1.2Z" fill="#DDA820"/>
<path opacity="0.25" d="M20.6 1.2C18.6 -0.2 17.7 -1.26949e-05 17.7 -1.26949e-05C17.7 -1.26949e-05 16.8 -0.2 14.8 1.2C13.5 2.1 8.2 8.10001 4.5 12.4C8.4 14.5 12.9 15.8 17.7 15.8C22.5 15.8 27 14.6 30.9 12.4C27.2 8.10001 21.9 2.1 20.6 1.2Z" fill="black"/>
<path d="M124.5 73.6C125.9 71.6 125.7 70.7 125.7 70.7C125.7 70.7 125.9 69.8 124.5 67.8C123.1 65.8 109.5 54.2 108.8 53.8C108.1 53.4 80.3 51.6 77.4 55.1C74.5 58.6 74.8 70.7 74.8 70.7C74.8 70.7 74.5 82.8 77.4 86.3C80.3 89.8 108.1 88 108.8 87.6C109.5 87.2 123.1 75.6 124.5 73.6Z" fill="#E6E6E6"/>
<path opacity="0.25" d="M124.5 73.6C125.9 71.6 125.7 70.7 125.7 70.7C125.7 70.7 125.9 69.8 124.5 67.8C123.6 66.5 117.6 61.2 113.3 57.5C111.2 61.4 109.9 65.9 109.9 70.7C109.9 75.5 111.1 80 113.3 83.9C117.6 80.2 123.6 74.9 124.5 73.6Z" fill="white"/>
<path d="M52.2 102.7C54.2 104.1 55.1 103.9 55.1 103.9C55.1 103.9 56 104.1 58 102.7C60 101.3 71.6 87.7 72 87C72.4 86.3 74.2 58.5001 70.7 55.6001C67.2 52.7001 55.1 53 55.1 53C55.1 53 43 52.8001 39.5 55.6001C36 58.4001 37.8 86.3 38.2 87C38.6 87.7 50.2 101.3 52.2 102.7Z" fill="#E6E6E6"/>
<path opacity="0.25" d="M52.2 102.7C54.2 104.1 55.1 103.9 55.1 103.9C55.1 103.9 56 104.1 58 102.7C59.3 101.8 64.6 95.8 68.3 91.5C64.4 89.4 59.9 88.1 55.1 88.1C50.3 88.1 45.8 89.3 41.9 91.5C45.6 95.8 50.9 101.8 52.2 102.7Z" fill="white"/>
<path d="M175.9 55.1C173 51.6 145.2 53.4 144.5 53.8C143.8 54.2 130.2 65.8 128.8 67.8C127.4 69.8 127.6 70.7 127.6 70.7C127.6 70.7 127.4 71.6 128.8 73.6C130.2 75.6 143.8 87.2 144.5 87.6C145.2 88 173 89.8 175.9 86.3C178.8 82.8 178.5 70.7 178.5 70.7C178.5 70.7 178.8 58.6 175.9 55.1Z" fill="#E6E6E6"/>
<path opacity="0.25" d="M140.1 57.6C135.8 61.3 129.8 66.6 128.9 67.9C127.5 69.9 127.7 70.8 127.7 70.8C127.7 70.8 127.5 71.7 128.9 73.7C129.8 75 135.8 80.3 140.1 84C142.2 80.1 143.5 75.6 143.5 70.8C143.5 66 142.2 61.5 140.1 57.6Z" fill="white"/>
<path d="M20.6 54.2C18.6 52.8 17.7 53 17.7 53C17.7 53 16.8 52.8 14.8 54.2C12.8 55.6 1.19998 69.2 0.799985 69.9C0.399985 70.6 -1.4 98.4 2.1 101.3C5.6 104.2 17.7 103.9 17.7 103.9C17.7 103.9 29.8 104.2 33.3 101.3C36.8 98.4 35 70.6 34.6 69.9C34.2 69.2 22.6 55.6 20.6 54.2Z" fill="#E6E6E6"/>
<path opacity="0.25" d="M20.6 54.2C18.6 52.8 17.7 53 17.7 53C17.7 53 16.8 52.8 14.8 54.2C13.5 55.1 8.2 61.1 4.5 65.4C8.4 67.5 12.9 68.8 17.7 68.8C22.5 68.8 27 67.6 30.9 65.4C27.2 61.1 21.9 55.1 20.6 54.2Z" fill="white"/>
</g>
<defs>
<clipPath id="clip0_4_34">
<rect width="178.5" height="104" fill="white"/>
</clipPath>
</defs>
</svg>
