<svg width="224" height="113" viewBox="0 0 224 113" fill="none" xmlns="http://www.w3.org/2000/svg">
<g clip-path="url(#clip0_4_61)">
<path d="M83.8 111.3C69.3 111.3 57.5 99.5 57.5 85C57.5 70.5 69.3 58.8 83.8 58.8C98.3 58.8 110 70.6 110 85.1C110 99.6 98.2 111.3 83.8 111.3Z" fill="#E6E6E6"/>
<path d="M83.8 59.8C97.7 59.8 109.1 71.1 109.1 85C109.1 98.9 97.8 110.3 83.8 110.3C69.8 110.3 58.5 99 58.5 85.1C58.5 71.2 69.8 59.8 83.8 59.8ZM83.8 57.8C68.8 57.8 56.5 70 56.5 85C56.5 100 68.7 112.3 83.8 112.3C98.9 112.3 111 100.1 111 85.1C111 70.1 98.8 57.8 83.8 57.8Z" fill="#F0F0F0"/>
<path d="M83.8 66.2C73.4 66.2 64.9 74.7 64.9 85.1C64.9 95.5 73.4 104 83.8 104C94.2 104 102.7 95.5 102.7 85.1C102.6 74.6 94.2 66.2 83.8 66.2ZM83.8 101.1C74.9 101.1 67.8 93.9 67.8 85.1C67.8 76.2 75 69.1 83.8 69.1C92.6 69.1 99.8 76.3 99.8 85.1C99.8 93.9 92.6 101.1 83.8 101.1Z" fill="#FFBB0D"/>
<path d="M27.2 111.3C12.8 111.3 1 99.6 1 85.1C1 70.6 12.8 58.9 27.3 58.9C41.8 58.9 53.6 70.7 53.6 85.1C53.6 99.5 41.7 111.3 27.2 111.3Z" fill="#E6E6E6"/>
<path d="M27.3 59.8C41.2 59.8 52.6 71.1 52.6 85C52.6 98.9 41.3 110.3 27.3 110.3C13.3 110.3 2 99 2 85.1C2 71.2 13.3 59.8 27.3 59.8ZM27.3 57.8C12.2 57.8 0 70.1 0 85.1C0 100.1 12.2 112.4 27.3 112.4C42.4 112.4 54.6 100.2 54.6 85.1C54.5 70.1 42.3 57.8 27.3 57.8Z" fill="#F0F0F0"/>
<path d="M41.6 72.7L39.6 70.7L27.3 83.1L14.9 70.7L12.9 72.7L25.2 85.1L12.9 97.4L14.9 99.5L27.3 87.1L39.6 99.5L41.6 97.4L29.3 85.1L41.6 72.7Z" fill="#FFBB0D"/>
<path d="M140.3 111.3C125.8 111.3 114.1 99.5 114.1 85C114.1 70.5 125.9 58.8 140.3 58.8C154.7 58.8 166.6 70.6 166.6 85C166.6 99.4 154.7 111.3 140.3 111.3Z" fill="#E6E6E6"/>
<path d="M140.3 59.8C154.2 59.8 165.6 71.1 165.6 85C165.6 98.9 154.3 110.3 140.3 110.3C126.3 110.3 115 99 115 85.1C115 71.2 126.3 59.8 140.3 59.8ZM140.3 57.8C125.3 57.8 113 70 113 85C113 100 125.2 112.3 140.3 112.3C155.4 112.3 167.6 100.1 167.6 85C167.6 69.9 155.3 57.8 140.3 57.8Z" fill="#F0F0F0"/>
<path d="M151.8 70.7H128.8H126V73.5V96.5V99.3H128.8H151.8H154.6V96.5V73.5V70.7H151.8ZM151.8 96.6H128.8V73.6H151.8V96.6Z" fill="#FFBB0D"/>
<path d="M196.7 111.3C182.2 111.3 170.4 99.5 170.4 85C170.4 70.5 182.2 58.8 196.7 58.8C211.2 58.8 223 70.6 223 85.1C223 99.6 211.2 111.3 196.7 111.3Z" fill="#E6E6E6"/>
<path d="M196.8 59.8C210.7 59.8 222.1 71.1 222.1 85C222.1 98.9 210.8 110.3 196.8 110.3C182.8 110.3 171.5 99 171.5 85.1C171.5 71.2 182.8 59.8 196.8 59.8ZM196.8 57.8C181.8 57.8 169.5 70 169.5 85C169.5 100 181.7 112.3 196.8 112.3C211.9 112.3 224 100.1 224 85.1C224 70.1 211.8 57.8 196.8 57.8Z" fill="#F0F0F0"/>
<path d="M212.7 93.1L196.7 65.5L180.7 93.1L179.1 95.9H182.4H196.7H211H214.3L212.7 93.1ZM196.8 93.1H184.1L196.8 71.2L209.5 93.1H196.8Z" fill="#FFBB0D"/>
<path d="M83.8 53.5C69.3 53.5 57.5 41.7 57.5 27.2C57.5 12.7 69.3 1 83.8 1C98.3 1 110 12.8 110 27.2C110 41.6 98.2 53.5 83.8 53.5Z" fill="#1A1A1A"/>
<path d="M83.8 2C97.7 2 109 13.3 109 27.3C109 41.3 97.7 52.5 83.8 52.5C69.9 52.5 58.5 41.2 58.5 27.3C58.5 13.4 69.8 2 83.8 2ZM83.8 0C68.8 0 56.5 12.2 56.5 27.3C56.5 42.4 68.7 54.6 83.8 54.6C98.9 54.6 111 42.3 111 27.3C111 12.3 98.8 0 83.8 0Z" fill="#0F0F0F"/>
<path d="M83.8 8.39999C73.4 8.39999 64.9 16.9 64.9 27.3C64.9 37.7 73.4 46.2 83.8 46.2C94.2 46.2 102.7 37.7 102.7 27.3C102.6 16.8 94.2 8.39999 83.8 8.39999ZM83.8 43.3C74.9 43.3 67.8 36.1 67.8 27.3C67.8 18.4 75 11.3 83.8 11.3C92.6 11.3 99.8 18.5 99.8 27.3C99.8 36.1 92.6 43.3 83.8 43.3Z" fill="#DDA820"/>
<path d="M27.2 53.5C12.8 53.5 1 41.7 1 27.3C1 12.9 12.8 1 27.2 1C41.6 1 53.5 12.8 53.5 27.3C53.5 41.8 41.7 53.5 27.2 53.5Z" fill="#1A1A1A"/>
<path d="M27.3 2C41.2 2 52.6 13.3 52.6 27.3C52.6 41.3 41.2 52.5 27.3 52.5C13.4 52.5 2 41.2 2 27.3C2 13.4 13.3 2 27.3 2ZM27.3 0C12.2 0 0 12.2 0 27.3C0 42.3 12.2 54.6 27.3 54.6C42.4 54.6 54.6 42.4 54.6 27.3C54.5 12.2 42.3 0 27.3 0Z" fill="#0F0F0F"/>
<path d="M41.6 14.9L39.6 12.9L27.3 25.2L14.9 12.9L12.9 14.9L25.2 27.2L12.9 39.6L14.9 41.6L27.3 29.3L39.6 41.6L41.6 39.6L29.3 27.2L41.6 14.9Z" fill="#DDA820"/>
<path d="M140.3 54.2C125.8 54.2 114.1 42.4 114.1 28C114.1 13.6 125.9 1.69998 140.3 1.69998C154.7 1.69998 166.6 13.5 166.6 28C166.6 42.5 154.7 54.2 140.3 54.2Z" fill="#1A1A1A"/>
<path d="M140.3 2.69998C154.2 2.69998 165.6 14 165.6 28C165.6 42 154.3 53.2 140.3 53.2C126.3 53.2 115 41.9 115 27.9C115 13.9 126.3 2.69998 140.3 2.69998ZM140.3 0.699982C125.3 0.699982 113 12.9 113 28C113 43.1 125.2 55.2 140.3 55.2C155.4 55.2 167.6 43 167.6 28C167.6 13 155.3 0.699982 140.3 0.699982Z" fill="#0F0F0F"/>
<path d="M151.8 13.5H128.8H126V16.3V39.3V42.1H128.8H151.8H154.6V39.3V16.3V13.5C154.6 13.5 151.8 13.5 151.8 13.5ZM151.8 39.4H128.8V16.4H151.8V39.4Z" fill="#DDA820"/>
<path d="M196.7 54.8C182.2 54.8 170.4 43 170.4 28.5C170.4 14 182.2 2.19998 196.7 2.19998C211.2 2.19998 223 14.1 223 28.6C223 43.1 211.2 54.8 196.7 54.8Z" fill="#1A1A1A"/>
<path d="M196.8 3.29999C210.7 3.29999 222.1 14.6 222.1 28.6C222.1 42.6 210.8 53.9 196.8 53.9C182.8 53.9 171.5 42.6 171.5 28.6C171.5 14.6 182.8 3.29999 196.8 3.29999ZM196.8 1.29999C181.8 1.29999 169.5 13.5 169.5 28.6C169.5 43.7 181.7 55.9 196.8 55.9C211.9 55.9 224 43.6 224 28.6C224 13.6 211.8 1.29999 196.8 1.29999Z" fill="#0F0F0F"/>
<path d="M212.7 36.6L196.7 9L180.7 36.6L179.1 39.4H182.4H196.7H211H214.3L212.7 36.6ZM196.8 36.6H184.1L196.8 14.7L209.5 36.6H196.8Z" fill="#DDA820"/>
</g>
<defs>
<clipPath id="clip0_4_61">
<rect width="224" height="112.3" fill="white"/>
</clipPath>
</defs>
</svg>
