<svg width="29" height="47" viewBox="0 0 29 47" fill="none" xmlns="http://www.w3.org/2000/svg">
<g clip-path="url(#clip0_4_104)">
<path d="M14.2 1.70001C21.1 1.70001 26.7 7.30001 26.7 14.2V32.5C26.7 39.4 21.1 45 14.2 45C7.30001 45 1.70001 39.4 1.70001 32.5V14.2C1.70001 7.30001 7.30001 1.70001 14.2 1.70001ZM14.2 0C6.40001 0 0 6.40001 0 14.2V32.5C0 40.3 6.40001 46.7 14.2 46.7C22 46.7 28.4 40.3 28.4 32.5V14.2C28.4 6.40001 22 0 14.2 0Z" fill="#DDA820"/>
<path d="M14.2 1.70001C7.30001 1.70001 1.70001 7.30001 1.70001 14.2V32.5C1.70001 39.4 7.30001 45 14.2 45C21.1 45 26.7 39.4 26.7 32.5V14.2C26.7 7.30001 21.1 1.70001 14.2 1.70001Z" fill="#EFEEE5"/>
</g>
<defs>
<clipPath id="clip0_4_104">
<rect width="28.4" height="46.7" fill="white"/>
</clipPath>
</defs>
</svg>
