<svg width="286" height="94" viewBox="0 0 286 94" fill="none" xmlns="http://www.w3.org/2000/svg">
<path d="M47 92.5C21.9 92.5 1.5 72.1 1.5 47C1.5 21.9 21.9 1.5 47 1.5C72.1 1.5 92.5 21.9 92.5 47C92.5 72.1 72.1 92.5 47 92.5Z" fill="#DDA820"/>
<path d="M47 3C71.3 3 91 22.7 91 47C91 71.3 71.3 91 47 91C22.7 91 3 71.3 3 47C3 22.7 22.7 3 47 3ZM47 0C21 0 0 21 0 47C0 73 21 94 47 94C73 94 94 73 94 47C94 21 73 0 47 0Z" fill="#FFBA09"/>
<path d="M47 74.3C62.0774 74.3 74.3 62.0774 74.3 47C74.3 31.9226 62.0774 19.7 47 19.7C31.9226 19.7 19.7 31.9226 19.7 47C19.7 62.0774 31.9226 74.3 47 74.3Z" fill="#A67E18"/>
<path d="M239 92.5C213.9 92.5 193.5 72.1 193.5 47C193.5 21.9 213.9 1.5 239 1.5C264.1 1.5 284.5 21.9 284.5 47C284.5 72.1 264.1 92.5 239 92.5Z" fill="#F0F0F0"/>
<path d="M239 3C263.3 3 283 22.7 283 47C283 71.3 263.3 91 239 91C214.7 91 195 71.3 195 47C195 22.7 214.7 3 239 3ZM239 0C213 0 192 21 192 47C192 73 213 94 239 94C265 94 286 73 286 47C286 21 265 0 239 0Z" fill="#EDEDED"/>
<path d="M239 74.3C254.077 74.3 266.3 62.0774 266.3 47C266.3 31.9226 254.077 19.7 239 19.7C223.923 19.7 211.7 31.9226 211.7 47C211.7 62.0774 223.923 74.3 239 74.3Z" fill="#EBEBEB"/>
<path d="M218.7 33.5H231.3C237.1 33.5 240 36.2 240 40.6C240 45.7 236.5 47 235.6 47.3V47.4C237.2 47.6 239.5 48.8 239.5 53C239.5 56.1 239.9 58.9 240.9 60H235.9C235.2 58.9 235.2 57.4 235.2 56.1C235.2 51.3 234.2 49.1 229.9 49.1H223.1V60H218.5V33.5H218.7ZM223.3 45.6H230.9C233.9 45.6 235.4 44.2 235.4 41.4C235.4 38 233.2 37.4 230.8 37.4H223.3V45.6Z" fill="#DDA820"/>
<path d="M250.3 44.8C253.1 44.9 256 43.9 256 40.7C256 38.5 254.3 37 252 37C249.1 37 247.6 39.6 247.7 42.3H243.5C243.7 37.3 246.9 33.5 252.1 33.5C256.1 33.5 260.3 35.8 260.3 40.4C260.3 43 259.2 45.1 256.6 45.9V46C259.6 46.6 261.3 49.1 261.3 52.5C261.3 57.4 257 60.4 252.1 60.4C246.1 60.4 243.1 56.8 243 51.4H247.2C247.1 54.5 248.8 56.9 252.1 56.9C254.9 56.9 257.1 55.2 257.1 52.3C257.1 48.3 253.7 47.8 250.3 47.9V44.8V44.8Z" fill="#DDA820"/>
<path d="M143 92.5C117.9 92.5 97.5 72.1 97.5 47C97.5 21.9 117.9 1.5 143 1.5C168.1 1.5 188.5 21.9 188.5 47C188.5 72.1 168.1 92.5 143 92.5Z" fill="#F0F0F0"/>
<path d="M143 3C167.3 3 187 22.7 187 47C187 71.3 167.3 91 143 91C118.7 91 99 71.3 99 47C99 22.7 118.7 3 143 3ZM143 0C117 0 96 21 96 47C96 73 117 94 143 94C169 94 190 73 190 47C190 21 169 0 143 0Z" fill="#EDEDED"/>
<path d="M143 74.3C158.077 74.3 170.3 62.0774 170.3 47C170.3 31.9226 158.077 19.7 143 19.7C127.923 19.7 115.7 31.9226 115.7 47C115.7 62.0774 127.923 74.3 143 74.3Z" fill="#EBEBEB"/>
<path d="M125.1 33.5H129.7V55.9H143.1V59.9H125.1V33.5Z" fill="#DDA820"/>
<path d="M151.9 44.8C154.7 44.9 157.6 43.9 157.6 40.7C157.6 38.5 155.9 37 153.6 37C150.7 37 149.2 39.6 149.3 42.3H145.1C145.3 37.3 148.5 33.5 153.7 33.5C157.7 33.5 161.9 35.8 161.9 40.4C161.9 43 160.8 45.1 158.2 45.9V46C161.2 46.6 162.9 49.1 162.9 52.5C162.9 57.4 158.6 60.4 153.7 60.4C147.7 60.4 144.7 56.8 144.6 51.4H148.8C148.7 54.5 150.4 56.9 153.7 56.9C156.5 56.9 158.7 55.2 158.7 52.3C158.7 48.3 155.3 47.8 151.9 47.9V44.8Z" fill="#DDA820"/>
</svg>
