<svg width="200" height="91" viewBox="0 0 200 91" fill="none" xmlns="http://www.w3.org/2000/svg">
<g clip-path="url(#clip0_4_130)">
<path d="M199.9 90.8C199.9 90.8 167.2 87.6 149.3 87.6C131.4 87.6 100.9 90 100.9 90C100.9 90 104 45.3 105.7 38C107.4 30.7 113.4 16.7 122.6 10.1C131.8 3.49998 134.6 0 145.4 0C156.2 0 170.8 6.39999 180 21.4C189.2 36.4 199.9 90.8 199.9 90.8Z" fill="#DDA820"/>
<path d="M101.4 83.2C101.4 83.2 127.5 78.8 150.4 78.8C173.2 78.8 198.3 83.2 198.3 83.2C199.3 87.9 199.9 90.8 199.9 90.8C199.9 90.8 167.2 87.6 149.3 87.6C131.4 87.6 100.9 90 100.9 90C100.9 90 101.1 87.3 101.4 83.2Z" fill="#BC8F1B"/>
<g opacity="0.08">
<path opacity="0.08" d="M151.4 65.7C149.3 67.4 148.2 68.3 148.2 68.3C147 69.5 146.3 71 146.2 72.8H156V70.2H149.8C150.1 69.7 150.8 69 151.9 68.3C153.3 67.4 154.2 66.7 154.6 66.2C155.5 65.2 155.9 64.1 155.9 62.9C155.9 61.5 155.4 60.4 154.5 59.6C153.6 58.8 152.4 58.4 151 58.4C147.9 58.4 146.3 60.1 146.3 63.4H149C149 61.6 149.7 60.7 151.1 60.7C152.4 60.7 153.1 61.4 153.1 62.8C153.2 63.9 152.6 64.8 151.4 65.7Z" fill="black"/>
</g>
<path opacity="0.8" d="M133.9 67.2H136.9C138.4 67.2 139.2 67.8 139.3 69.1C139.4 70.3 139.5 71.6 139.6 72.9H142.9V72.5C142.4 72.3 142.2 71.8 142.2 71C142.2 70.8 142.2 70.6 142.3 70.2V69.5C142.3 67.8 141.7 66.6 140.5 66C141.9 65.5 142.7 64.4 142.7 62.6C142.7 61.3 142.3 60.3 141.4 59.6C140.6 58.9 139.5 58.6 138.2 58.6H130.9V72.9H133.9V67.2ZM133.9 61H137.6C139 61 139.7 61.6 139.7 62.9C139.7 64.2 138.9 64.8 137.4 64.8H133.9V61Z" fill="black"/>
<path d="M0 90.8C0 90.8 32.7 87.6 50.6 87.6C68.5 87.6 98.9 90 98.9 90C98.9 90 95.8 45.3 94.1 38C92.4 30.7 86.4 16.7 77.2 10.1C68 3.49998 65.3 0 54.5 0C43.7 0 29.1 6.39999 19.9 21.4C10.7 36.4 0 90.8 0 90.8Z" fill="#DDA820"/>
<path d="M98.4 83.2C98.4 83.2 72.3 78.8 49.4 78.8C26.6 78.8 1.50003 83.2 1.50003 83.2C0.500031 87.9 -0.0999756 90.8 -0.0999756 90.8C-0.0999756 90.8 32.6 87.6 50.5 87.6C68.4 87.6 98.9 90 98.9 90C98.9 90 98.8 87.3 98.4 83.2Z" fill="#BC8F1B"/>
<g opacity="0.08">
<path opacity="0.08" d="M64.5 65.7C62.4 67.4 61.3 68.3 61.3 68.3C60.1 69.5 59.4 71 59.3 72.8H69V70.2H62.8C63.1 69.7 63.8 69 64.9 68.3C66.3 67.4 67.2001 66.7 67.6001 66.2C68.5001 65.2 68.9 64.1 68.9 62.9C68.9 61.5 68.4 60.4 67.5 59.6C66.6 58.8 65.4 58.4 64 58.4C60.9 58.4 59.3 60.1 59.3 63.4H62C62 61.6 62.7001 60.7 64.1001 60.7C65.4001 60.7 66.1001 61.4 66.1001 62.8C66.2001 63.9 65.7 64.8 64.5 65.7Z" fill="black"/>
</g>
<path opacity="0.8" d="M56 70.2H48.9V58.5H45.9V72.8H56V70.2Z" fill="black"/>
</g>
<defs>
<clipPath id="clip0_4_130">
<rect width="199.9" height="90.8" fill="white"/>
</clipPath>
</defs>
</svg>
